<svg xmlns="http://www.w3.org/2000/svg" width="270" height="40"><title>app-store-badges-en</title><defs><linearGradient id="a" x1="50%" x2="50%" y1="0%" y2="100%"><stop stop-color="#00C3FF" offset="3.938%"/><stop stop-color="#00E1FF" offset="97.744%"/></linearGradient><linearGradient id="b" x1="80.747%" x2="-156.778%" y1="50%" y2="50%"><stop stop-color="#FDDE31" offset="0%"/><stop stop-color="#FABC31" offset="40%"/><stop stop-color="#F8A431" offset="77%"/><stop stop-color="#F79B31" offset="100%"/></linearGradient><linearGradient id="c" x1="86.151%" x2="-50.12%" y1="17.813%" y2="194.699%"><stop stop-color="#FF3A44" offset="0%"/><stop stop-color="#C4206D" offset="100%"/></linearGradient></defs><g fill="none"><path fill="#000" d="M134.03 35.27c0 2.1-1.7 3.83-3.83 3.83H4.73C2.6 39.1.9 37.38.9 35.27V4.72C.9 2.63 2.6.9 4.72.9H130.2c2.12 0 3.83 1.7 3.83 3.82v30.55z"/><path d="M30.13 19.78c-.03-3.22 2.64-4.8 2.76-4.86-1.52-2.2-3.86-2.5-4.7-2.53-1.95-.22-3.86 1.17-4.86 1.17-1.03 0-2.57-1.16-4.23-1.12-2.13.03-4.13 1.27-5.23 3.2-2.27 3.9-.58 9.68 1.6 12.85 1.08 1.55 2.35 3.3 4 3.23 1.63-.07 2.24-1.04 4.2-1.04 1.94 0 2.5 1.03 4.2 1 1.75-.04 2.85-1.57 3.9-3.14 1.25-1.78 1.76-3.53 1.78-3.62-.04-.02-3.4-1.3-3.42-5.16zm-3.2-9.48c.87-1.1 1.47-2.57 1.3-4.08-1.26.05-2.84.87-3.75 1.94-.8.94-1.53 2.5-1.34 3.94 1.42.1 2.88-.72 3.8-1.8zM53.64 31.5h-2.27l-1.24-3.9H45.8l-1.18 3.9h-2.2l4.27-13.3h2.64l4.3 13.3zm-3.9-5.55l-1.1-3.47c-.13-.36-.35-1.2-.68-2.5h-.04c-.13.56-.34 1.4-.63 2.5l-1.12 3.47h3.58zm14.92.65c0 1.62-.44 2.9-1.32 3.86-.8.84-1.77 1.26-2.94 1.26-1.27 0-2.17-.45-2.73-1.36h-.04v5.05H55.5V25.08c0-1.03-.03-2.08-.08-3.16h1.88l.12 1.53h.04c.7-1.15 1.8-1.72 3.23-1.72 1.13 0 2.07.46 2.83 1.35.75.9 1.13 2.08 1.13 3.54zm-2.17.07c0-.94-.22-1.7-.64-2.3-.46-.65-1.08-.96-1.86-.96-.52 0-1 .18-1.43.53-.43.35-.7.8-.84 1.37-.06.27-.1.48-.1.65v1.6c0 .7.22 1.3.65 1.77.42.48.98.72 1.66.72.8 0 1.43-.3 1.88-.92.45-.62.67-1.44.67-2.45zm13.21-.07c0 1.62-.44 2.9-1.33 3.86-.78.84-1.77 1.26-2.94 1.26-1.26 0-2.17-.45-2.72-1.36h-.03v5.05h-2.13V25.08c0-1.03-.03-2.08-.08-3.16h1.87l.12 1.53h.04c.7-1.15 1.78-1.72 3.23-1.72 1.13 0 2.08.46 2.83 1.35.76.9 1.14 2.08 1.14 3.54zm-2.17.07c0-.94-.2-1.7-.64-2.3-.47-.65-1.08-.96-1.86-.96-.53 0-1 .18-1.43.53-.42.35-.7.8-.83 1.37-.07.27-.1.48-.1.65v1.6c0 .7.2 1.3.64 1.77.44.48 1 .72 1.68.72.8 0 1.43-.3 1.88-.92.44-.62.67-1.44.67-2.45zm14.51 1.1c0 1.13-.4 2.05-1.18 2.77-.87.77-2.08 1.16-3.63 1.16-1.43 0-2.58-.27-3.45-.83l.5-1.78c.93.56 1.96.84 3.08.84.8 0 1.43-.18 1.88-.54.44-.36.67-.85.67-1.45 0-.54-.18-1-.55-1.37-.36-.37-.98-.7-1.83-1.03-2.33-.87-3.5-2.14-3.5-3.8 0-1.1.4-2 1.23-2.7.8-.7 1.9-1.05 3.26-1.05 1.22 0 2.22.2 3.03.63L87 20.37c-.76-.4-1.6-.6-2.55-.6-.75 0-1.34.17-1.76.54-.37.34-.54.74-.54 1.22 0 .52.2.96.6 1.3.36.32 1 .66 1.94 1.03 1.15.46 2 1 2.53 1.62.54.6.8 1.38.8 2.3zm7.06-4.27h-2.36v4.67c0 1.18.4 1.77 1.24 1.77.38 0 .7-.03.95-.1l.06 1.62c-.43.16-.98.24-1.67.24-.84 0-1.5-.26-1.98-.77-.47-.5-.7-1.38-.7-2.6v-4.82h-1.4v-1.6h1.4v-1.75l2.1-.63v2.4h2.34v1.6zm10.6 3.13c0 1.47-.43 2.68-1.27 3.63-.9.97-2.06 1.46-3.52 1.46-1.4 0-2.52-.47-3.35-1.4-.84-.93-1.26-2.1-1.26-3.53 0-1.5.42-2.72 1.3-3.67.85-.94 2-1.42 3.47-1.42 1.4 0 2.54.48 3.4 1.4.8.92 1.22 2.1 1.22 3.53zm-2.22.07c0-.9-.2-1.65-.57-2.28-.44-.77-1.08-1.15-1.9-1.15-.86 0-1.52.38-1.96 1.15-.4.63-.57 1.4-.57 2.32 0 .88.18 1.64.57 2.27.46.78 1.1 1.16 1.93 1.16.82 0 1.46-.4 1.92-1.17.38-.65.58-1.42.58-2.3zm9.14-2.92c-.2-.04-.44-.06-.67-.06-.75 0-1.33.3-1.74.85-.34.5-.52 1.14-.52 1.9v5.03h-2.13l.02-6.57c0-1.1-.03-2.1-.08-3.02h1.84l.08 1.85h.06c.23-.64.58-1.14 1.07-1.53.47-.34.98-.5 1.54-.5.2 0 .36 0 .52.03v2.03zm9.54 2.47c0 .38-.03.7-.08.97h-6.4c.03.95.34 1.67.93 2.17.55.44 1.25.66 2.1.66.95 0 1.8-.15 2.6-.45l.32 1.5c-.9.38-1.98.58-3.2.58-1.5 0-2.67-.44-3.52-1.3-.85-.9-1.27-2.06-1.27-3.53 0-1.45.4-2.66 1.18-3.62.84-1.02 1.96-1.54 3.37-1.54 1.38 0 2.43.5 3.14 1.53.57.82.86 1.82.86 3.02zm-2.04-.55c.02-.63-.12-1.18-.4-1.64-.38-.6-.95-.9-1.7-.9-.7 0-1.27.3-1.7.88-.36.46-.57 1-.64 1.66h4.44zM49.05 10c0 1.2-.35 2.07-1.06 2.67-.66.55-1.6.82-2.8.82-.6 0-1.1-.04-1.52-.1V7c.55-.1 1.15-.13 1.8-.13 1.15 0 2 .25 2.6.74.64.56.97 1.36.97 2.4zm-1.1.04c0-.76-.2-1.35-.6-1.76-.42-.4-1-.6-1.78-.6-.33 0-.6 0-.85.06v4.9c.13 0 .37.02.7.02.8 0 1.43-.23 1.87-.67.42-.46.64-1.1.64-1.96zm6.95 1c0 .72-.2 1.32-.6 1.78-.45.48-1.02.72-1.74.72-.7 0-1.24-.23-1.65-.7-.4-.45-.6-1.03-.6-1.73 0-.72.2-1.3.63-1.78.42-.46 1-.7 1.7-.7s1.26.23 1.68.7c.4.44.6 1 .6 1.72zm-1.08.03c0-.43-.1-.8-.28-1.12-.22-.37-.53-.56-.94-.56-.42 0-.74.18-.96.55-.2.3-.28.7-.28 1.14 0 .42.1.8.28 1.1.23.38.54.57.95.57.4 0 .7-.2.93-.57.2-.32.3-.7.3-1.13zm8.95-2.35l-1.48 4.7h-.97l-.6-2.03c-.17-.53-.3-1.03-.4-1.54-.1.52-.23 1.03-.4 1.53l-.64 2.03h-.98l-1.38-4.7H57l.54 2.23c.13.53.24 1.03.33 1.5.1-.38.22-.88.4-1.5l.67-2.24h.86l.64 2.2c.15.54.28 1.06.38 1.55h.02c.07-.48.18-1 .32-1.55l.58-2.2h1.02zm5.43 4.71h-1.05v-2.7c0-.83-.32-1.24-.95-1.24-.3 0-.56.1-.76.33-.2.23-.3.5-.3.8v2.8H64.1v-3.36c0-.42 0-.87-.03-1.35H65l.04.73h.03c.12-.22.3-.4.54-.56.3-.2.6-.28.96-.28.44 0 .8.14 1.1.43.36.35.54.87.54 1.56v2.83zm2.9 0h-1.06V6.56h1.05zm6.16-2.39c0 .72-.2 1.32-.62 1.78-.44.48-1 .72-1.73.72-.68 0-1.23-.23-1.64-.7-.4-.45-.62-1.03-.62-1.73 0-.72.2-1.3.64-1.78.42-.46 1-.7 1.7-.7s1.25.23 1.68.7c.4.44.6 1 .6 1.72zm-1.1.03c0-.43-.08-.8-.27-1.12-.23-.37-.54-.56-.95-.56-.42 0-.74.18-.96.55-.2.3-.3.7-.3 1.14 0 .42.1.8.3 1.1.22.38.53.57.94.57.4 0 .7-.2.94-.57.2-.32.3-.7.3-1.13zm6.17 2.36h-.94l-.1-.54h-.02c-.32.42-.78.64-1.37.64-.44 0-.8-.14-1.07-.43-.25-.24-.37-.57-.37-.95 0-.57.24-1 .72-1.32.48-.3 1.16-.45 2.04-.44v-.1c0-.62-.33-.93-.98-.93-.47 0-.88.12-1.23.35l-.2-.7c.43-.26.97-.4 1.6-.4 1.24 0 1.86.65 1.86 1.95v1.74c0 .48.02.86.07 1.13zm-1.1-1.62v-.7c-1.14-.03-1.72.28-1.72.94 0 .24.07.43.2.55.14.1.32.17.52.17.23 0 .45-.07.64-.22.2-.14.32-.33.37-.55v-.2zm7.05 1.62h-.93l-.04-.75h-.02c-.3.57-.8.86-1.52.86-.57 0-1.04-.22-1.4-.67-.4-.45-.58-1.02-.58-1.74 0-.76.2-1.38.62-1.85.4-.44.87-.66 1.45-.66.63 0 1.08.2 1.33.64h.02v-2.7h1.05v5.6c0 .46 0 .88.03 1.27zm-1.08-1.98v-.8c0-.13 0-.24-.03-.32-.06-.25-.2-.47-.38-.64-.2-.18-.44-.26-.7-.26-.4 0-.7.15-.93.46-.22.3-.34.7-.34 1.2 0 .46.1.84.32 1.13.23.3.54.47.92.47a1 1 0 0 0 .83-.4c.2-.23.3-.52.3-.86zm10.05-.41c0 .72-.2 1.32-.62 1.78-.44.48-1 .72-1.73.72-.7 0-1.24-.23-1.65-.7-.4-.45-.62-1.03-.62-1.73 0-.72.2-1.3.64-1.78.42-.46 1-.7 1.7-.7s1.26.23 1.68.7c.4.44.6 1 .6 1.72zm-1.1.03c0-.43-.08-.8-.27-1.12-.22-.37-.53-.56-.94-.56-.42 0-.74.18-.96.55-.2.3-.28.7-.28 1.14 0 .42.1.8.28 1.1.23.38.54.57.95.57.4 0 .72-.2.94-.57.2-.32.3-.7.3-1.13zm6.73 2.36h-1.04v-2.7c0-.83-.32-1.24-.95-1.24-.33 0-.58.1-.77.33-.2.23-.3.5-.3.8v2.8H98.8v-3.36c0-.42-.02-.87-.05-1.35h.92l.05.73h.03c.12-.22.3-.4.54-.56.28-.2.6-.28.94-.28.44 0 .8.14 1.1.43.36.35.54.87.54 1.56v2.83zm7.06-3.93h-1.16v2.3c0 .58.2.87.6.87.2 0 .36-.02.48-.05l.03.8c-.22.07-.5.1-.83.1-.4 0-.73-.12-.97-.37-.23-.25-.35-.67-.35-1.27V9.5h-.7l.02-.78h.68v-.87l1.03-.3V8.7h1.16v.78zm5.54 3.93h-1.05v-2.68c0-.84-.3-1.27-.94-1.27-.5 0-.83.25-1 .74-.05.1-.06.23-.06.38v2.83h-1.05V6.56h1.04V9.4h.02c.33-.52.8-.78 1.4-.78.45 0 .8.14 1.1.43.35.35.52.88.52 1.58v2.8zm5.72-2.58c0 .2 0 .35-.03.48h-3.14c0 .46.16.82.45 1.06.27.2.6.32 1.03.32.47 0 .9-.07 1.28-.22l.16.73c-.44.2-.97.3-1.58.3-.73 0-1.3-.22-1.72-.65-.42-.43-.62-1-.62-1.74 0-.7.2-1.3.58-1.77.4-.5.95-.76 1.65-.76.67 0 1.2.27 1.54.77.27.4.4.9.4 1.48zm-1-.27c.02-.3-.05-.58-.2-.8-.18-.3-.45-.44-.83-.44-.34 0-.62.14-.83.43-.18.22-.28.5-.3.8h2.17z" fill="#fff"/><path fill="#A6A6A6" d="M130.2 39c2.07 0 3.8-1.7 3.8-3.73V4.73C134 2.7 132.27 1 130.2 1H4.73A3.73 3.73 0 0 0 1 4.73v30.54C1 37.32 2.68 39 4.73 39H130.2zm0 1H4.73C2.13 40 0 37.87 0 35.27V4.73C0 2.13 2.12 0 4.73 0H130.2c2.6 0 4.8 2.12 4.8 4.73v30.54c0 2.6-2.2 4.73-4.8 4.73z"/><g><g transform="translate(135)"><rect width="135" height="40" fill="#000" rx="5"/><path fill="#fff" stroke="#fff" stroke-width=".2" d="M47.42 10.24c.03.74-.24 1.46-.75 2-.57.6-1.37.92-2.2.9-1.27-.02-2.4-.8-2.9-1.96-.47-1.17-.2-2.52.7-3.42.57-.6 1.37-.92 2.2-.9.42 0 .84.08 1.23.25.36.16.68.4.94.68l-.53.53c-.4-.47-1-.73-1.63-.7-.63 0-1.24.25-1.68.7-.45.46-.68 1.07-.66 1.7 0 .95.55 1.82 1.42 2.2.88.38 1.9.2 2.58-.47.3-.33.5-.77.5-1.22h-2.17v-.7h2.9c.04.14.05.3.05.44zM52 7.74h-2.7v1.9h2.46v.72H49.3v1.9H52V13h-3.5V7H52zM55.28 13h-.77V7.74h-1.67V7H57v.74h-1.72zm4.66 0V7h.77v6zm4.19 0h-.77V7.74h-1.68V7h4.12v.74h-1.67zm9.47-.78c-1.2 1.2-3.17 1.2-4.4 0a3.26 3.26 0 0 1 0-4.45c.6-.6 1.38-.92 2.2-.92.84 0 1.63.33 2.2.92a3.2 3.2 0 0 1 0 4.45zm-3.82-.5c.9.9 2.36.9 3.26 0 .9-.98.9-2.46 0-3.44-.9-.9-2.36-.9-3.26 0-.9.98-.9 2.46 0 3.44zm5.8 1.28V7h.94l2.92 4.67V7h.77v6h-.8l-3.04-4.9V13z"/><path fill="#fff" d="M68.14 21.75c-2.34 0-4.24 1.92-4.23 4.26a4.27 4.27 0 0 0 4.27 4.25c2.34 0 4.24-1.9 4.24-4.25.03-1.14-.42-2.23-1.22-3.03-.8-.8-1.9-1.24-3.04-1.22zm0 6.83c-1.06.07-2.05-.5-2.5-1.46-.46-.96-.3-2.1.43-2.87.72-.78 1.84-1.03 2.83-.65 1 .4 1.64 1.34 1.64 2.4.03.66-.2 1.3-.66 1.8-.45.48-1.08.76-1.74.78zm-9.3-6.83c-2.36 0-4.25 1.9-4.25 4.26a4.244 4.244 0 1 0 8.49 0c0-1.14-.44-2.23-1.24-3.03-.8-.8-1.9-1.24-3.04-1.22zm0 6.83c-1.07.08-2.06-.5-2.52-1.45-.46-.96-.3-2.1.43-2.88a2.6 2.6 0 0 1 2.83-.65c1 .4 1.64 1.34 1.64 2.4.03.66-.2 1.3-.66 1.8-.45.48-1.08.76-1.74.78zm-11.1-5.52v1.8h4.32c-.07.85-.42 1.65-1 2.27-.87.9-2.08 1.37-3.33 1.32a4.801 4.801 0 0 1 0-9.6c1.22-.02 2.4.44 3.27 1.3l1.27-1.28A6.36 6.36 0 0 0 47.74 17c-2.42-.1-4.7 1.14-5.94 3.23a6.589 6.589 0 0 0 0 6.75 6.592 6.592 0 0 0 5.94 3.23c1.73.1 3.4-.6 4.6-1.84a5.933 5.933 0 0 0 1.57-4.22c0-.38-.02-.76-.1-1.13l-6.06.06zm45.3 1.4a3.947 3.947 0 0 0-3.63-2.7c-1.1 0-2.15.44-2.9 1.25-.77.8-1.16 1.9-1.1 3 0 1.13.42 2.22 1.22 3.02.8.8 1.88 1.25 3 1.23 1.43 0 2.76-.7 3.55-1.88l-1.45-1c-.44.73-1.23 1.18-2.1 1.18-.88.03-1.7-.48-2.05-1.3l5.7-2.34-.22-.44zm-5.8 1.42c-.03-.62.18-1.24.6-1.7.42-.47 1-.75 1.63-.78.66-.04 1.28.3 1.58.9l-3.8 1.58zM82.65 30h1.86V17.5h-1.87V30zm-3.07-7.3h-.07c-.57-.64-1.38-1-2.24-1-2.27.1-4.05 1.98-4.05 4.25 0 2.28 1.8 4.15 4.06 4.26.86.02 1.68-.34 2.24-1h.06v.62c0 1.63-.87 2.5-2.27 2.5a2.37 2.37 0 0 1-2.15-1.5l-1.63.67A4.08 4.08 0 0 0 77.3 34c2.18 0 4-1.3 4-4.43V22h-1.73v.7zm-2.14 5.88c-1.34-.12-2.36-1.24-2.36-2.58s1.02-2.46 2.36-2.58c.65.03 1.25.33 1.68.8.44.5.65 1.13.6 1.78.06.65-.16 1.3-.6 1.78-.42.5-1.03.78-1.68.8zM101.8 17.5h-4.46V30h1.87v-4.74h2.62c1.45.1 2.84-.6 3.6-1.86.76-1.24.76-2.8 0-4.04a3.894 3.894 0 0 0-3.6-1.86zm0 6h-2.6v-4.26h2.65c1.18 0 2.15.96 2.15 2.15 0 1.17-.97 2.13-2.15 2.13l-.04-.03zm11.54-1.8c-1.4-.08-2.7.67-3.33 1.9l1.67.7c.33-.62 1-.98 1.7-.92.48-.06.96.08 1.34.4.38.3.62.73.67 1.2v.14c-.6-.32-1.27-.48-1.95-.48-1.8 0-3.6 1-3.6 2.8.04.8.4 1.52.97 2.04s1.34.78 2.12.72c.96.07 1.88-.4 2.4-1.2h.06v1h1.8v-4.8c0-2.2-1.66-3.47-3.8-3.47l-.04-.03zm-.23 6.85c-.6 0-1.45-.3-1.45-1.06 0-1 1.06-1.34 2-1.34.6 0 1.18.13 1.7.42a2.262 2.262 0 0 1-2.2 2l-.04-.03zM123.75 22l-2.14 5.42h-.06L119.32 22h-2l3.33 7.58-1.9 4.2h1.95L125.82 22h-2.08zm-16.8 8h1.86V17.5h-1.87V30z"/><path fill="url(#a)" d="M10.44 7.55c-.33.4-.5.93-.44 1.45v22c-.03.5.13 1 .46 1.4l.07.07L22.9 20.15v-.3L10.5 7.5l-.06.07z"/><path fill="url(#b)" d="M27 24.27l-4.13-4.13v-.3l4.13-4.1.1.04 4.9 2.78c1.4.8 1.4 2.1 0 2.9l-4.9 2.77-.1.04z"/><path fill="url(#c)" d="M27.1 24.22L22.9 20 10.43 32.45c.6.52 1.46.54 2.08.06l14.6-8.28"/><path fill="#00F076" d="M27.1 15.78l-14.6-8.3a1.63 1.63 0 0 0-2.07.07L22.9 20l4.2-4.22z"/></g></g><path fill="#A6A6A6" d="M265.2 39c2.07 0 3.8-1.7 3.8-3.73V4.73C269 2.7 267.27 1 265.2 1H139.73A3.73 3.73 0 0 0 136 4.73v30.54c0 2.05 1.68 3.73 3.73 3.73H265.2zm0 1H139.73c-2.6 0-4.73-2.13-4.73-4.73V4.73c0-2.6 2.12-4.73 4.73-4.73H265.2c2.6 0 4.8 2.12 4.8 4.73v30.54c0 2.6-2.2 4.73-4.8 4.73z"/></g></svg>